<?xml version="1.0" encoding="utf-8"?>
<!-- Generator: Adobe Illustrator 22.1.0, SVG Export Plug-In . SVG Version: 6.00 Build 0)  -->
<svg version="1.2" baseProfile="tiny" id="Layer_1" xmlns="http://www.w3.org/2000/svg" xmlns:xlink="http://www.w3.org/1999/xlink"
	 x="0px" y="0px" viewBox="0 0 1050 1080" xml:space="preserve">
<rect fill="#D8D8D8" width="70" height="1080"/>
<rect x="140" fill="#D8D8D8" width="70" height="1080"/>
<rect x="420" y="0" transform="matrix(-1 -4.490331e-11 4.490331e-11 -1 910 1080)" fill="#D8D8D8" width="70" height="1080"/>
<rect x="280" y="0" transform="matrix(-1 -4.490331e-11 4.490331e-11 -1 630 1080)" fill="#D8D8D8" width="70" height="1080"/>
<rect x="560" fill="#D8D8D8" width="70" height="1080"/>
<rect x="700" fill="#D8D8D8" width="70" height="1080"/>
<rect x="980" y="0" transform="matrix(-1 -4.490331e-11 4.490331e-11 -1 2030 1080)" fill="#D8D8D8" width="70" height="1080"/>
<rect x="840" y="0" transform="matrix(-1 -4.490331e-11 4.490331e-11 -1 1750 1080)" fill="#D8D8D8" width="70" height="1080"/>
</svg>
